<svg width="250" height="250" viewBox="0 0 250 250" fill="none" xmlns="http://www.w3.org/2000/svg">
<path fill-rule="evenodd" clip-rule="evenodd" d="M104.633 1.8137C118.964 -0.941913 135.312 -0.442304 149.557 2.53225C150.045 2.63262 150.534 2.73277 151.037 2.83618C168.745 6.59741 186.317 14.2337 200.493 25.5859L201.739 26.554C204.214 28.4929 206.576 30.5318 208.897 32.6514C209.709 33.3918 210.529 34.1247 211.356 34.8502C213.491 36.7297 215.501 38.6196 217.332 40.7974C218.063 41.6659 218.804 42.517 219.558 43.364C234.416 60.1498 244.25 81.3437 248.066 103.392C248.178 104.033 248.178 104.033 248.292 104.688C253.668 136.564 246.231 170.042 227.684 196.539C220.704 206.29 212.541 215.781 202.896 222.983C202.578 223.22 202.26 223.458 201.933 223.703C179.588 240.326 153.493 249.974 125.5 249.999C125.168 249.999 124.835 250 124.492 250C104.525 249.969 84.9671 245.221 67.2885 235.924C66.4672 235.493 65.6407 235.071 64.8141 234.651C53.8292 228.947 44.3755 221.131 35.6706 212.417L34.4655 211.263C31.2416 208.142 28.4207 204.841 25.7305 201.252C25.1376 200.461 24.5366 199.676 23.9351 198.892C17.8896 190.856 12.9892 181.87 9.24135 172.553C9.07434 172.139 8.90754 171.724 8.73547 171.298C-3.41628 140.651 -2.80758 105.922 10.0466 75.6031C13.4076 68.0077 17.3188 60.6404 22.2157 53.9227C22.4353 53.617 22.6549 53.311 22.8811 52.9959C29.5764 43.7029 37.1588 35.0186 46.2423 27.9873L47.6707 26.8429C63.8944 13.9419 83.0932 5.78103 103.426 2.05196L104.633 1.8137ZM177.908 28.9479C145.064 3.25976 89.3947 13.8476 58.7361 37.1128L57.4578 38.0808C55.1778 39.8577 53.0078 41.746 50.8674 43.6867C50.627 43.9036 50.3868 44.1207 50.1391 44.3442C48.69 45.6778 47.434 47.0731 46.2423 48.6396C53.4797 52.1582 61.4373 53.8879 69.2365 51.2587C73.9897 49.066 76.7671 44.9005 79.2413 40.4804C82.4767 34.7354 86.3664 31.0516 92.8309 29.1524C98.4872 27.9758 104.736 28.6734 109.582 31.7996C110.262 32.2775 110.933 32.7684 111.595 33.2705L112.796 34.1204C114.218 35.3885 115.103 36.7834 116.009 38.4335L116.516 39.3491C119.065 44.0727 119.593 49.1457 118.502 54.4631C116.897 59.6558 114.273 64.2149 109.44 66.8942C106.251 68.5638 103.57 69.8566 99.9398 69.7853L98.4541 69.7674C97.4367 69.7508 96.4193 69.7321 95.402 69.7112C89.3595 69.6469 83.6279 70.3999 79.0386 74.665C73.6314 80.5769 72.0016 88.2946 70.4218 95.9045C68.0855 106.758 62.0741 115.777 52.9697 122.123C42.8302 128.513 31.5183 130.035 19.813 127.887L18.2776 127.373C16.8625 126.825 16.8624 126.825 15.0077 126.926C14.0406 149.91 23.2774 174.477 37.5927 192.245C38.1064 190.705 38.0503 190.352 37.6528 188.853C35.0738 178.107 37.2174 166.614 42.8786 157.184C49.7145 147.08 59.2377 140.784 71.2299 138.453C72.6739 138.201 74.0915 138.055 75.5547 137.973L76.8724 137.879C83.9824 137.608 90.7375 139.507 97.3049 142.048C103.993 144.618 111.497 146.256 118.322 143.256C123.669 140.548 126.349 135.953 129.033 130.795C131.659 126.108 135.485 123.507 140.426 121.643C145.787 120.306 151.757 120.8 156.765 123.084C158.376 124.055 159.732 125.147 161.089 126.446L162.017 127.331C166.346 131.862 167.589 137.155 167.47 143.258C167.245 147.877 165.639 151.863 162.531 155.263L161.42 156.524C155.645 161.624 150.34 162.212 142.869 162.16C137.1 162.136 131.727 162.968 127.39 167.15C122.709 172.777 120.886 179.595 119.371 186.603C116.849 198.261 111.579 207.564 101.503 214.338L100.582 215.01C92.033 220.932 81.6918 221.302 71.7105 221.062C73.8716 223.019 76.2863 224.113 78.9184 225.294C79.3854 225.504 79.8526 225.715 80.3337 225.931C88.2281 229.409 96.4141 231.855 104.867 233.549C105.253 233.629 105.639 233.708 106.037 233.789C118.364 236.207 132.454 236.016 144.751 233.549L146.029 233.307C168.434 228.996 188.554 217.714 204.337 201.37C198.938 197.017 189.725 195.421 182.942 195.669C177.603 196.26 173.663 198.769 170.219 202.811C169.338 204.184 168.609 205.617 167.877 207.074C164.63 213.164 160.833 216.816 154.163 219.049C148.606 220.472 142.799 219.685 137.844 216.799C132.356 213.228 130.034 209.553 128.13 203.325C126.982 197.534 128.203 191.636 131.447 186.752C134.762 182.404 139.247 179.146 144.751 178.317C147.372 178.206 149.99 178.294 152.612 178.354C158.501 178.436 162.888 177.538 167.415 173.561C172.917 167.86 174.379 160.811 175.986 153.342C177.713 145.451 180.873 138.872 186.077 132.689L186.862 131.757C194.357 123.644 205.185 119.812 215.998 119.276C221.173 119.115 225.902 120.036 230.796 121.69C232.224 122.128 233.615 122.39 235.091 122.603C235.334 109.557 232.177 96.2617 227.403 84.1807L227.003 83.1657C223.415 74.2026 218.423 65.8615 212.506 58.2453C212.004 59.7917 212.074 60.7739 212.465 62.3409C214.804 73.1091 212.477 84.4011 206.692 93.6724C199.977 103.736 190.191 109.334 178.501 111.842C169.234 113.005 160.986 111.448 152.368 108.132C146.272 105.797 138.76 104.208 132.408 106.574C131.326 107.096 131.326 107.096 130.335 107.715L129.314 108.315C125.716 110.713 123.672 114.308 121.716 118.071C118.596 123.902 114.386 126.797 108.231 128.847C101.828 130.354 95.9688 128.874 90.4512 125.485C87.5916 123.245 85.7092 120.602 84.2043 117.32L83.7388 116.39C81.8242 111.854 82.0208 105.167 83.705 100.589C86.294 95.1998 90.1901 91.2853 95.737 88.9835C99.7352 87.6953 103.756 87.9758 107.903 88.1027C113.721 88.2015 118.084 86.8741 122.478 83.0025C127.507 77.737 129.003 70.2785 130.577 63.4403C133.2 52.0555 138.587 42.2154 148.535 35.7319C157.732 30.0209 167.272 28.7913 177.908 28.9479Z" fill="#986637"/>
</svg>
