<svg width="251" height="80" viewBox="0 0 251 80" fill="none" xmlns="http://www.w3.org/2000/svg">
<path fill-rule="evenodd" clip-rule="evenodd" d="M33.7027 1.28806C38.2348 0.416228 43.4044 0.574296 47.9087 1.5154C48.0632 1.54715 48.2177 1.57884 48.3769 1.61155C53.9765 2.80155 59.533 5.21755 64.0158 8.8092L64.41 9.11549C65.1925 9.72893 65.9393 10.374 66.6733 11.0446C66.9303 11.2789 67.1896 11.5107 67.4508 11.7403C68.1262 12.3349 68.7616 12.9328 69.3408 13.6219C69.5717 13.8966 69.8061 14.1659 70.0448 14.4339C74.7429 19.7447 77.8528 26.4501 79.0593 33.4258C79.0948 33.6287 79.0948 33.6287 79.131 33.8357C80.831 43.9208 78.4792 54.5127 72.6143 62.896C70.4071 65.9812 67.8258 68.9837 64.7756 71.2624C64.6752 71.3376 64.5747 71.4127 64.4713 71.4901C57.4051 76.7495 49.1535 79.802 40.3015 79.8099C40.1964 79.81 40.0912 79.81 39.9829 79.8102C33.6686 79.8005 27.4841 78.298 21.8938 75.3566C21.6341 75.2202 21.3727 75.087 21.1113 74.9538C17.6376 73.1494 14.6482 70.6766 11.8955 67.9194L11.5144 67.5544C10.495 66.5669 9.60297 65.5227 8.75226 64.3871C8.56478 64.1369 8.37471 63.8886 8.18451 63.6404C6.27281 61.0978 4.72318 58.2549 3.53803 55.3072C3.48522 55.1761 3.43248 55.045 3.37807 54.91C-0.464577 45.214 -0.272094 34.2262 3.79267 24.6338C4.85549 22.2308 6.09231 19.8999 7.6408 17.7745C7.71024 17.6778 7.77968 17.581 7.85122 17.4813C9.96842 14.5411 12.3661 11.7935 15.2385 9.56897L15.6902 9.20689C20.8205 5.12523 26.8916 2.54326 33.3211 1.36344L33.7027 1.28806ZM56.874 9.87288C46.488 1.74557 28.8842 5.0954 19.1893 12.4561L18.7851 12.7624C18.0641 13.3245 17.3779 13.922 16.7011 14.536C16.6251 14.6046 16.5491 14.6733 16.4708 14.744C16.0125 15.166 15.6154 15.6074 15.2385 16.103C17.5271 17.2162 20.0435 17.7635 22.5098 16.9316C24.0128 16.2379 24.8911 14.92 25.6735 13.5216C26.6966 11.704 27.9266 10.5384 29.9708 9.93758C31.7595 9.56532 33.7355 9.78603 35.268 10.7751C35.4829 10.9263 35.695 11.0816 35.9043 11.2405L36.2842 11.5094C36.7339 11.9106 37.0137 12.3519 37.3004 12.874L37.4606 13.1636C38.2665 14.6581 38.4336 16.2631 38.0886 17.9455C37.581 19.5883 36.7512 21.0308 35.2229 21.8785C34.2144 22.4067 33.3668 22.8157 32.2188 22.7932L31.749 22.7875C31.4273 22.7822 31.1055 22.7763 30.7839 22.7697C28.8731 22.7494 27.0607 22.9876 25.6094 24.337C23.8995 26.2075 23.3842 28.6492 22.8846 31.0569C22.1458 34.4906 20.2449 37.3442 17.3659 39.352C14.1595 41.3738 10.5825 41.8553 6.88103 41.1755L6.39549 41.0128C5.94799 40.8397 5.94797 40.8397 5.36148 40.8716C5.05566 48.1433 7.97653 55.9158 12.5033 61.5373C12.6658 61.0501 12.648 60.9385 12.5223 60.4642C11.7068 57.0643 12.3847 53.4283 14.1748 50.4447C16.3365 47.2478 19.3479 45.256 23.1401 44.5185C23.5968 44.4388 24.045 44.3925 24.5077 44.3665L24.9244 44.3368C27.1727 44.251 29.3088 44.8521 31.3856 45.656C33.5007 46.469 35.8733 46.9872 38.0317 46.038C39.7226 45.1812 40.5699 43.7275 41.4186 42.0955C42.2492 40.6126 43.4589 39.7898 45.0216 39.2001C46.7166 38.777 48.6044 38.9334 50.188 39.6559C50.6975 39.9632 51.1263 40.3088 51.5556 40.7196L51.8488 40.9998C53.2177 42.4333 53.6109 44.1078 53.5731 46.0386C53.5023 47.5001 52.9944 48.7613 52.0115 49.8369L51.6601 50.2357C49.8339 51.8495 48.1565 52.0354 45.7939 52.019C43.9698 52.0113 42.2707 52.2748 40.8992 53.5977C39.4188 55.378 38.8424 57.5353 38.3635 59.7525C37.5658 63.4409 35.8994 66.3842 32.7133 68.5272L32.4218 68.7397C29.7185 70.6135 26.4484 70.7305 23.2921 70.6546C23.9755 71.2739 24.7391 71.6199 25.5714 71.9937C25.7191 72.0601 25.8668 72.1266 26.019 72.1951C28.5153 73.2956 31.1039 74.0694 33.7769 74.6054C33.8989 74.6305 34.021 74.6555 34.1467 74.6814C38.045 75.4462 42.5004 75.3859 46.3891 74.6054L46.7932 74.5288C53.8782 73.1649 60.2406 69.5954 65.2315 64.4245C63.5243 63.0473 60.6109 62.5421 58.466 62.6206C56.7776 62.8076 55.5318 63.6016 54.4427 64.8803C54.164 65.3148 53.9334 65.7679 53.702 66.2289C52.6752 68.1559 51.4745 69.3112 49.3653 70.0177C47.608 70.4679 45.7718 70.2189 44.2048 69.306C42.4695 68.176 41.7354 67.0134 41.1331 65.043C40.7701 63.2109 41.1562 61.3448 42.1819 59.7994C43.2302 58.4239 44.6486 57.3931 46.3891 57.1307C47.2179 57.0956 48.0458 57.1236 48.8747 57.1425C50.737 57.1685 52.1245 56.8843 53.5559 55.626C55.2956 53.8225 55.7581 51.5923 56.2662 49.229C56.8123 46.7325 57.8117 44.651 59.4572 42.695L59.7053 42.4C62.0756 39.8332 65.4997 38.6208 68.9189 38.4513C70.5553 38.4001 72.0508 38.6918 73.5985 39.2149C74.0499 39.3536 74.4896 39.4366 74.9566 39.504C75.0332 35.3763 74.035 31.1699 72.5253 27.3476L72.399 27.0265C71.2644 24.1907 69.6857 21.5517 67.8147 19.1421C67.656 19.6313 67.678 19.9421 67.8016 20.4379C68.5413 23.8448 67.8055 27.4174 65.9761 30.3507C63.8528 33.5347 60.7583 35.3056 57.0616 36.0992C54.1311 36.4673 51.5229 35.9745 48.7976 34.9255C46.8701 34.1867 44.4945 33.6839 42.4858 34.4325C42.1438 34.5977 42.1438 34.5977 41.8305 34.7934L41.5076 34.9833C40.3698 35.7419 39.7234 36.8794 39.1048 38.0699C38.1184 39.9149 36.787 40.8306 34.8406 41.4794C32.8159 41.956 30.9631 41.4878 29.2183 40.4157C28.3141 39.7069 27.7188 38.8708 27.2429 37.8325L27.0957 37.5381C26.4903 36.103 26.5525 33.9874 27.085 32.539C27.9037 30.8339 29.1358 29.5954 30.8898 28.8672C32.1541 28.4596 33.4254 28.5483 34.737 28.5885C36.5768 28.6197 37.9563 28.1998 39.3458 26.9749C40.936 25.309 41.4093 22.9492 41.9068 20.7857C42.7365 17.1838 44.4397 14.0705 47.5858 12.0192C50.494 10.2124 53.5108 9.82335 56.874 9.87288Z" fill="white"/>
<path d="M88.1766 77.9484H84.9855V2.57908H88.1766V77.9484Z" fill="white"/>
<path d="M136.346 71.8702C137.061 70.7359 138.049 70.5456 139.281 70.987C139.761 71.3109 139.937 71.4797 140.145 72.0222C140.228 72.7197 140.227 73.3285 139.974 73.9881C139.463 74.5503 138.92 74.7808 138.17 74.8239C137.52 74.794 137.137 74.5914 136.65 74.1496C136.156 73.3207 136.126 72.7795 136.346 71.8702Z" fill="white"/>
<path fill-rule="evenodd" clip-rule="evenodd" d="M132.7 52.8673C132.709 55.2376 132.721 57.6078 132.735 59.978C132.742 61.1242 132.748 62.2705 132.752 63.4167C132.755 64.4156 132.76 65.4145 132.767 66.4134C132.771 66.9424 132.774 67.4714 132.775 68.0005C132.776 68.5906 132.78 69.1808 132.785 69.7709C132.785 69.9469 132.785 70.1229 132.785 70.3043C132.787 70.4647 132.789 70.6251 132.791 70.7904C132.791 70.93 132.792 71.0697 132.793 71.2136C132.826 71.5706 132.826 71.5706 133.035 71.8333C133.359 72.0851 133.359 72.0851 134.067 72.1741V74.3015C132.703 74.3806 131.442 74.192 130.344 73.3138C130.027 72.9968 129.771 72.6866 129.508 72.3261L129.273 72.56C127.826 73.9301 126.206 74.743 124.195 74.7615C122.433 74.673 121.09 74.1048 119.783 72.9339L119.494 72.6823C117.916 71.2181 117.142 69.1554 117.024 67.035C116.966 65.0138 117.398 63.2831 118.415 61.5373L118.59 61.2305C119.471 59.8464 121.062 58.8422 122.612 58.3795C124.407 57.9841 126.071 58.2403 127.685 59.1061C128.24 59.4661 128.737 59.8541 129.204 60.3217L129.356 53.4838C132.243 52.5721 132.243 52.572 132.699 52.572C132.7 52.6695 132.7 52.7669 132.7 52.8673ZM127.162 61.4804C126.311 60.8109 125.505 60.5371 124.427 60.5716C123.304 60.7275 122.31 61.3237 121.62 62.2182C120.433 64.0956 119.99 65.8785 120.4 68.1094C120.638 69.081 121.028 69.8444 121.607 70.6546L121.882 71.082C122.611 71.8112 123.626 72.3382 124.665 72.3736C125.865 72.3541 126.839 71.7905 127.707 70.987C129.037 69.4184 129.339 67.4848 129.234 65.5009C129.089 63.9509 128.302 62.5227 127.162 61.4804Z" fill="white"/>
<path d="M111.881 58.4983H114.921V60.7776H111.881C111.891 62.0695 111.902 63.3613 111.917 64.6532C111.924 65.253 111.93 65.8529 111.934 66.4529C111.938 67.0322 111.944 67.6117 111.952 68.191C111.954 68.4116 111.956 68.6322 111.957 68.8528C111.959 69.1627 111.963 69.4725 111.968 69.7824C111.97 70.0465 111.97 70.0466 111.973 70.3161C112.058 71.0038 112.276 71.5254 112.793 71.9937C113.28 72.2825 113.644 72.3429 114.196 72.3077L114.565 72.2854L114.949 72.2596L115.338 72.2356C115.655 72.2159 115.971 72.1951 116.288 72.1741V74.3015C114.468 74.9221 112.525 74.9213 110.761 74.1211C109.676 73.5233 109.105 72.7197 108.664 71.5773C108.411 70.6371 108.465 69.6676 108.479 68.7018C108.48 68.4723 108.481 68.2427 108.482 68.0132C108.484 67.4142 108.49 66.8152 108.497 66.2162C108.503 65.6029 108.506 64.9897 108.509 64.3764C108.515 63.1768 108.526 61.9772 108.538 60.7776H106.867V58.4983H108.538V53.4838L109.868 53.0279L110.284 52.8837L110.616 52.7715L110.954 52.6557C111.274 52.572 111.274 52.572 111.881 52.572V58.4983Z" fill="white"/>
<path d="M96.0782 58.6502C98.907 57.6081 102.644 58.2992 104.892 60.3217C104.658 60.881 104.317 61.2316 103.885 61.6513L103.509 62.0193L103.22 62.2971C102.781 62.093 102.421 61.858 102.042 61.5563C100.69 60.5228 99.4553 60.1709 97.7497 60.3217C97.204 60.507 96.9198 60.7943 96.6195 61.2904C96.4654 62.0097 96.6352 62.7223 96.9899 63.3608C97.2392 63.4715 97.4935 63.571 97.7497 63.6647C98.0633 63.8003 98.3767 63.9365 98.6899 64.0731C99.4283 64.3942 100.173 64.6911 100.926 64.974C102.68 65.6351 104.509 66.3266 105.368 68.1301C105.722 69.2009 105.784 70.3487 105.356 71.4013C104.574 72.9428 103.317 73.7731 101.71 74.3585C99.1478 75.1225 96.4307 74.697 94.088 73.4414C93.732 73.2297 93.3831 73.0126 93.0391 72.782C93.2562 72.2713 93.5194 71.9801 93.9414 71.6233L94.2589 71.3515C94.5587 71.1105 94.5587 71.1105 95.0145 70.8066L95.2377 70.9846C96.7458 72.1563 98.2337 72.8119 100.181 72.63C100.916 72.4622 101.564 72.2 102.004 71.5663C102.198 70.884 102.213 70.3414 101.89 69.6939C101.091 68.6195 99.589 68.205 98.386 67.777C96.558 67.1262 94.6037 66.4213 93.495 64.7284C93.0162 63.7179 92.8851 62.5047 93.1911 61.4234C93.7343 60.0764 94.8068 59.2746 96.0782 58.6502Z" fill="white"/>
<path fill-rule="evenodd" clip-rule="evenodd" d="M125.997 35.8333C128.319 34.5431 131.499 34.5616 133.724 36.0393C134.861 36.9478 135.718 38.0247 135.89 39.504C136.016 40.9062 135.712 42.0469 134.846 43.1699C134.078 43.9837 133.08 44.4796 132.091 44.9743L131.655 45.1928C130.35 45.7852 128.961 46.0825 127.572 46.4097C127.099 46.5256 126.632 46.6597 126.165 46.7978C126.78 47.8302 127.557 48.6304 128.725 49.0053C130.106 49.308 131.391 48.9933 132.587 48.258C133.244 47.7822 133.812 47.2325 134.371 46.6458C134.859 46.8558 135.138 47.0902 135.472 47.5006L135.712 47.7914L135.89 48.0134C135.439 49.4012 134.052 50.2093 132.826 50.8715C130.941 51.6635 128.513 51.6471 126.604 50.9498C124.228 49.8612 122.805 48.1797 121.874 45.7685C121.241 43.9164 121.423 41.5716 122.214 39.8079C123.059 38.0893 124.078 36.9884 125.709 36.009L125.997 35.8333ZM130.724 37.2247C128.82 37.0378 127.511 37.4694 126.28 38.9561C125.461 40.171 125.079 41.4696 125.082 42.9229L125.081 43.431C125.099 43.8628 125.155 44.2507 125.253 44.6704C126.213 44.5897 127.06 44.4232 127.97 44.1101C128.088 44.0695 128.207 44.029 128.33 43.9872C129.871 43.4449 131.791 42.6638 132.547 41.0995C132.835 40.0934 132.73 39.3812 132.285 38.4534C131.904 37.8298 131.422 37.4574 130.724 37.2247Z" fill="white"/>
<path fill-rule="evenodd" clip-rule="evenodd" d="M138.625 36.4649C142.268 34.8553 146.54 33.9143 150.06 36.3509C151.648 37.9394 151.56 40.4215 151.568 42.514C151.572 42.8532 151.575 43.1924 151.579 43.5317C151.585 44.0612 151.589 44.5908 151.591 45.1203C151.593 45.635 151.599 46.1496 151.606 46.6642C151.606 46.8233 151.606 46.9823 151.605 47.1462C151.608 47.2934 151.61 47.4406 151.613 47.5923C151.614 47.7216 151.615 47.851 151.616 47.9843C151.667 48.3389 151.667 48.3389 151.964 48.581C152.329 48.8092 152.329 48.8092 152.909 48.9251V51.0525C151.579 51.1179 150.282 51.0084 149.234 50.1123L148.806 49.6849C148.322 49.8513 147.926 50.0645 147.505 50.3497C145.656 51.5014 143.522 51.6506 141.41 51.2508C139.997 50.8238 138.983 50.0968 138.208 48.8367C137.559 47.585 137.296 46.184 137.714 44.8129C138.579 42.849 140.594 41.8916 142.491 41.147C144.194 40.5139 146.22 39.9138 148.047 39.9598C147.898 39.0823 147.739 38.3666 147.135 37.6805C146.044 37.039 145.034 37.1303 143.839 37.3861C142.886 37.637 142.071 38.0673 141.213 38.5424C140.753 38.7442 140.753 38.7442 140.437 38.7555C139.973 38.4962 139.674 38.0987 139.347 37.69L139.136 37.4363C138.625 36.8111 138.625 36.8111 138.625 36.4649ZM148.199 41.9352C146.129 41.9352 143.157 43.2308 141.702 44.6212C141.084 45.3305 141.003 45.9466 141.014 46.853C141.102 47.6757 141.449 48.2597 142.035 48.8302C142.921 49.3919 143.666 49.4975 144.704 49.381C145.876 49.1092 146.791 48.6139 147.591 47.7095C148.125 46.8476 148.218 46.0662 148.213 45.0663L148.212 44.5128L148.208 43.9391L148.206 43.3566C148.204 42.8828 148.202 42.409 148.199 41.9352Z" fill="white"/>
<path d="M159.139 35.2493H162.178V37.3766H159.139C159.149 38.6435 159.16 39.9103 159.175 41.1771C159.182 41.7654 159.188 42.3536 159.192 42.9419C159.196 43.5104 159.202 44.079 159.21 44.6474C159.212 44.8635 159.214 45.0798 159.215 45.2959C159.189 47.1483 159.189 47.1483 159.994 48.7637C161.152 49.2817 162.477 49.0408 163.698 48.9251V50.9005C162.791 51.2914 162.052 51.4356 161.067 51.4229C160.877 51.421 160.877 51.421 160.683 51.419C159.223 51.3791 158.044 51.0239 156.97 49.9977C156.031 48.8755 155.776 47.6773 155.779 46.2434C155.779 46.0457 155.779 45.8481 155.779 45.6445C155.78 45.431 155.781 45.2175 155.781 45.004C155.782 44.7839 155.782 44.5637 155.782 44.3435C155.783 43.7665 155.784 43.1894 155.786 42.6124C155.787 42.0226 155.788 41.4328 155.789 40.8431C155.79 39.6876 155.793 38.5321 155.796 37.3766H154.125V35.2493H155.796V30.2348L157.126 29.7789L157.542 29.6347L157.874 29.5225L158.211 29.4067C158.531 29.323 158.531 29.323 159.139 29.323V35.2493Z" fill="white"/>
<path fill-rule="evenodd" clip-rule="evenodd" d="M208.22 37.0727C211.328 34.2841 215.78 34.2211 219.064 36.7403C220.583 38.006 221.765 39.7956 222.048 41.7833C222.216 44.3817 221.781 46.528 220.187 48.6687C218.272 50.5398 216.196 51.4224 213.548 51.4116C211.316 51.368 209.564 50.5591 207.945 49.0296C206.201 47.1923 205.567 45.0655 205.605 42.5876C205.68 40.4738 206.704 38.5169 208.22 37.0727ZM215.704 37.4716C213.863 36.6505 212.114 37.1141 210.703 38.4694C209.191 40.2866 208.925 42.3849 209.132 44.6704C209.38 46.0826 210.066 47.337 211.108 48.3173C212.281 49.139 213.332 49.3548 214.755 49.229C216.038 48.8841 216.975 48.0929 217.68 46.9877C218.777 45.0306 218.884 43.0009 218.335 40.8538C217.909 39.43 216.995 38.2118 215.704 37.4716Z" fill="white"/>
<path d="M239.827 43.1509C240.702 42.1885 241.544 41.2527 242.357 40.2459C242.749 39.7653 243.148 39.2923 243.55 38.8202C244.188 38.0691 244.817 37.311 245.439 36.5462L245.753 36.161L246.084 35.6606C246.537 35.2258 246.6 35.1879 247.185 35.1602C247.433 35.1662 247.681 35.177 247.928 35.1923L248.313 35.2047C248.625 35.2154 248.937 35.2318 249.248 35.2493C248.99 35.879 248.543 36.35 248.099 36.8543C247.933 37.0457 247.766 37.2372 247.6 37.4288L247.352 37.7149C247.038 38.0813 246.732 38.4547 246.427 38.8297C245.66 39.7755 244.871 40.7034 244.082 41.6313C244.682 42.6227 245.326 43.5573 246.04 44.4698C246.85 45.5074 247.611 46.5793 248.377 47.6485C248.652 48.0289 248.928 48.4075 249.205 48.7857C249.297 48.9108 249.388 49.0359 249.482 49.1648C249.659 49.4064 249.836 49.6476 250.014 49.8884C250.093 49.9967 250.172 50.1051 250.253 50.2168C250.323 50.3123 250.393 50.4079 250.466 50.5064C250.616 50.7486 250.616 50.7486 250.616 51.0525C247.153 51.3604 247.153 51.3603 246.201 50.9026C245.718 50.495 245.442 49.949 245.165 49.3932C244.835 48.7842 244.4 48.2447 243.987 47.6905C243.819 47.458 243.651 47.2251 243.484 46.9919C243.405 46.8814 243.325 46.7708 243.244 46.657C243.04 46.372 242.836 46.0867 242.633 45.8012L242.306 45.3447L242.029 44.9547C241.821 44.6532 241.821 44.6532 241.498 44.5185L241.39 44.7844C241.195 45.1263 241.195 45.1263 240.871 45.4017C240.026 46.1613 239.793 46.7338 239.704 47.8537C239.655 48.9206 239.657 49.9849 239.675 51.0525H236.332V30.2348C239.067 29.323 239.067 29.323 239.675 29.323L239.827 43.1509Z" fill="white"/>
<path fill-rule="evenodd" clip-rule="evenodd" d="M93.6469 29.323C103.507 29.323 103.507 29.323 105.537 30.7286C106.771 31.9622 107.482 33.501 107.522 35.2493C107.505 36.8303 107.055 38.0397 106.029 39.2392C105.792 39.4951 105.792 39.4951 105.651 39.8079L105.913 39.9646C107.307 40.8399 108.343 41.9277 108.8 43.5349C109.187 45.3096 108.971 46.9851 108.006 48.5316C107.011 49.9149 105.639 50.7208 103.98 51.0525H93.6469V29.323ZM101.204 41.3126C101.044 41.3128 101.044 41.3128 100.88 41.313C100.483 41.3138 100.085 41.316 99.6871 41.3179L96.9899 41.3274V48.9251L99.4877 48.9536C99.745 48.9578 100.002 48.962 100.267 48.9662C101.842 48.9811 103.15 48.8842 104.436 47.8615C105.239 47.0535 105.577 46.2604 105.651 45.1263C105.569 44.0086 105.237 43.1821 104.436 42.3911C103.351 41.528 102.581 41.3033 101.204 41.3126ZM102.633 32.2487C101.42 31.537 100.343 31.5457 98.9653 31.5739L96.9899 31.6023V39.2001C100.335 39.3991 100.335 39.3991 103.154 37.9411C103.888 37.0633 104.198 36.0386 104.183 34.9091C104.049 33.8154 103.461 32.9477 102.633 32.2487Z" fill="white"/>
<path d="M120.695 38.2883L119.489 38.4023C118.262 38.5372 117.297 38.7576 116.317 39.542C115.461 40.6174 115.214 41.6474 115.193 43.0136C115.19 43.193 115.187 43.3725 115.184 43.5573C115.182 43.7487 115.179 43.9402 115.176 44.1374C115.173 44.3351 115.17 44.5328 115.167 44.7365C115.159 45.2595 115.151 45.7826 115.144 46.3057C115.136 46.8405 115.127 47.3754 115.119 47.9101C115.103 48.9576 115.087 50.005 115.072 51.0525H111.729C111.726 50.6636 111.722 50.2748 111.718 49.8741C111.705 48.5907 111.692 47.3073 111.678 46.0239C111.67 45.2457 111.661 44.4674 111.654 43.6891C111.647 42.9383 111.639 42.1875 111.63 41.4368C111.627 41.1501 111.624 40.8633 111.622 40.5766C111.618 40.1756 111.613 39.7747 111.609 39.3738C111.608 39.2547 111.607 39.1355 111.606 39.0128C111.599 38.5298 111.579 38.142 111.426 37.6805C110.892 37.4937 110.892 37.4937 110.362 37.3766V35.2493C112.465 35.3677 113.639 36.1875 115.072 37.6805L115.252 37.4799C116.492 36.16 117.835 35.5011 119.631 35.2493H120.695V38.2883Z" fill="white"/>
<path d="M169.016 37.2247L170.384 36.009C172.25 34.9621 173.92 34.6442 176.007 35.2243C177.554 35.8259 178.555 36.9068 179.229 38.3892C179.885 40.0402 179.827 41.7297 179.82 43.4845C179.82 43.7037 179.819 43.923 179.819 44.1423C179.819 44.7143 179.817 45.2864 179.815 45.8585C179.814 46.4442 179.813 47.03 179.812 47.6157C179.811 48.7613 179.808 49.9069 179.805 51.0525H176.462C176.458 50.633 176.458 50.633 176.453 50.205C176.443 49.2735 176.431 48.3419 176.418 47.4103C176.411 46.8464 176.404 46.2825 176.398 45.7185C176.392 45.1727 176.385 44.6268 176.377 44.081C176.373 43.7749 176.37 43.4688 176.368 43.1628C176.38 40.5932 176.38 40.5932 175.398 38.2883C174.636 37.6534 173.958 37.5748 172.976 37.614C171.722 37.7934 170.89 38.4496 170.063 39.3722C169.122 40.8015 168.903 42.0433 168.909 43.7367C168.907 43.949 168.904 44.1612 168.902 44.3735C168.896 44.9263 168.894 45.4791 168.894 46.0319C168.892 46.5984 168.887 47.1648 168.881 47.7312C168.871 48.8383 168.867 49.9453 168.864 51.0525H165.521V30.2348C168.256 29.323 168.257 29.323 168.864 29.323L169.016 37.2247Z" fill="white"/>
<path d="M204.279 35.2398L204.628 35.2418C204.914 35.2436 205.2 35.2464 205.485 35.2493C205.13 36.4014 204.666 37.4982 204.186 38.6028C203.933 39.1841 203.683 39.7665 203.432 40.3486C203.352 40.5355 203.352 40.5356 203.27 40.7263C202.633 42.2052 202.004 43.6875 201.377 45.1705C201.248 45.4755 201.119 45.7804 200.99 46.0852C200.808 46.5151 200.626 46.9452 200.444 47.3753C200.39 47.5033 200.335 47.6314 200.279 47.7632C200.181 47.9975 200.084 48.2324 199.988 48.4681C199.882 48.7259 199.765 48.9791 199.646 49.231C199.489 49.8478 199.489 49.8478 200.015 51.0525H196.368C195.7 49.7543 195.104 48.443 194.544 47.0956C194.409 46.7736 194.274 46.4521 194.139 46.1306C194.053 45.9253 193.967 45.7199 193.881 45.5145C193.804 45.3303 193.727 45.1461 193.648 44.9564C193.481 44.5184 193.481 44.5184 193.481 44.2146H193.177C193.161 44.3192 193.144 44.4238 193.127 44.5315C193.008 45.0476 192.818 45.4952 192.606 45.9804C192.523 46.1746 192.439 46.3688 192.356 46.563C192.225 46.8662 192.094 47.169 191.961 47.4712C191.832 47.7648 191.706 48.0596 191.58 48.3547C191.504 48.5297 191.428 48.7048 191.349 48.8851C191.184 49.4397 191.215 49.7369 191.354 50.2927L191.506 51.0525H187.859C186.618 48.2613 185.422 45.4538 184.242 42.6367C183.851 41.7036 183.456 40.7722 183.06 39.8411C182.89 39.4429 182.721 39.0446 182.553 38.6463C182.444 38.3898 182.334 38.1334 182.225 37.8771C182.073 37.5216 181.922 37.1658 181.771 36.8097C181.703 36.6513 181.703 36.6513 181.633 36.4897C181.448 36.0497 181.325 35.732 181.325 35.2493H184.971C186.555 38.9919 188.138 42.7346 189.682 46.4939C190.286 45.2311 190.87 43.9593 191.43 42.676C191.485 42.5537 191.54 42.4315 191.596 42.3055C191.646 42.1892 191.696 42.0729 191.748 41.953C191.815 41.7993 191.815 41.7993 191.884 41.6425C192.077 40.8554 191.639 40.1167 191.329 39.4072C191.282 39.2977 191.235 39.1882 191.187 39.0754C191.037 38.7273 190.887 38.3796 190.736 38.0319C190.585 37.6826 190.434 37.3332 190.284 36.9835C190.191 36.7663 190.097 36.5494 190.003 36.3327C189.682 35.5874 189.682 35.5873 189.682 35.2493H193.329C193.781 36.1541 194.217 37.0326 194.597 37.9642C194.642 38.0721 194.687 38.18 194.733 38.2912C194.828 38.5203 194.922 38.7497 195.016 38.9791C195.265 39.5839 195.516 40.188 195.766 40.792C195.842 40.9741 195.842 40.9741 195.919 41.1599C196.659 42.945 197.426 44.719 198.191 46.4939C198.626 45.4739 199.061 44.4539 199.496 43.4339C199.698 42.9599 199.9 42.4859 200.102 42.012C200.336 41.4631 200.569 40.9142 200.803 40.3652C200.917 40.0977 200.917 40.0977 201.034 39.8248C201.38 39.0113 201.725 38.1974 202.066 37.3817C202.123 37.246 202.18 37.1104 202.238 36.9706C202.342 36.7216 202.446 36.4723 202.549 36.223C202.885 35.4178 202.885 35.4178 203.054 35.2493C203.464 35.2381 203.87 35.2352 204.279 35.2398Z" fill="white"/>
<path d="M234.357 38.2883L233.236 38.4023C231.99 38.551 230.793 38.7342 229.883 39.6749C228.959 40.9527 228.968 42.439 228.96 43.9593C228.958 44.1649 228.955 44.3706 228.952 44.5762C228.945 45.1123 228.941 45.6484 228.937 46.1845C228.932 46.7336 228.925 47.2827 228.918 47.8318C228.905 48.9053 228.895 49.9789 228.886 51.0525H225.543C225.541 50.6744 225.539 50.2963 225.537 49.9068C225.529 48.6573 225.519 47.4079 225.508 46.1585C225.501 45.4011 225.495 44.6436 225.491 43.8862C225.487 43.1551 225.481 42.424 225.473 41.6929C225.47 41.4141 225.469 41.1351 225.468 40.8563C225.466 40.4656 225.462 40.075 225.457 39.6843C225.457 39.5691 225.457 39.4539 225.458 39.3353C225.446 38.6606 225.386 38.1958 224.935 37.6805L224.024 37.3766V35.2493C225.502 35.2882 226.751 35.6139 227.87 36.6329C228.582 37.4213 228.582 37.4213 228.582 37.8325L228.867 37.5191C230.474 35.9259 232.134 35.3438 234.357 35.2493V38.2883Z" fill="white"/>
<path d="M131.181 6.36146C131.19 8.66963 131.201 10.9778 131.215 13.2859C131.222 14.4021 131.228 15.5185 131.232 16.6347C131.236 17.6076 131.241 18.5805 131.248 19.5534C131.252 20.0685 131.254 20.5837 131.255 21.0988C131.257 21.674 131.261 22.2493 131.266 22.8245C131.266 23.0803 131.266 23.0804 131.265 23.3415C131.268 23.577 131.268 23.577 131.271 23.8172C131.272 23.9532 131.272 24.0893 131.273 24.2294C131.345 24.703 131.506 24.9867 131.787 25.3722C132.638 25.8751 133.32 25.8685 134.285 25.7806L134.666 25.7524C134.973 25.7293 135.28 25.7031 135.586 25.6761V27.6515C133.934 28.5151 131.951 28.3809 130.204 27.8421C129.194 27.4024 128.508 26.5995 128.053 25.6129C127.755 24.7935 127.776 23.9954 127.785 23.1324C127.785 22.8698 127.785 22.8698 127.785 22.6019C127.785 22.0263 127.789 21.4509 127.792 20.8753C127.793 20.4751 127.794 20.0748 127.794 19.6745C127.795 18.7306 127.799 17.7866 127.804 16.8427C127.809 15.7675 127.811 14.6922 127.814 13.617C127.818 11.4066 127.826 9.19616 127.837 6.98575C128.279 6.83229 128.723 6.6809 129.166 6.52989L129.546 6.39811L129.914 6.27346L130.252 6.15772C130.572 6.07403 130.572 6.07402 131.18 6.07402C131.18 6.16886 131.18 6.26375 131.181 6.36146Z" fill="white"/>
<path fill-rule="evenodd" clip-rule="evenodd" d="M117.048 12.0002C119.334 11.3133 121.975 11.5768 123.886 13.0639C124.946 14.0304 125.613 15.2181 125.714 16.6622C125.693 18.1944 125.148 19.2962 124.066 20.3577C121.87 22.1973 118.774 23.0179 115.984 23.3968C116.316 24.3275 116.847 24.9356 117.712 25.4233C118.972 25.9768 120.071 25.9698 121.37 25.5408C122.461 25.0672 123.339 24.3514 124.038 23.3968C124.623 23.4784 124.846 23.7184 125.215 24.1661L125.498 24.5038L125.709 24.7644C125.005 26.1733 123.763 27.0165 122.366 27.6515L122.023 27.8088C120.324 28.4453 118.111 28.3056 116.431 27.7032C114.218 26.694 112.668 25.1379 111.724 22.8917C110.937 20.7094 111.123 18.4347 112.088 16.3434C113.146 14.1702 114.781 12.8353 117.048 12.0002ZM121.189 14.2891C119.552 13.3919 117.581 13.9581 116.336 15.2768C115.222 16.6375 114.893 18.0695 114.902 19.7784L114.9 20.1556C114.882 20.8091 114.882 20.8091 115.072 21.4214C117.484 21.0856 120.522 20.2638 122.062 18.2304C122.503 17.5115 122.455 16.7684 122.366 15.9511C122.167 15.2027 121.825 14.7286 121.189 14.2891Z" fill="white"/>
<path d="M185.039 12.1409C187.895 11.1501 191.223 11.7152 193.617 13.5536L193.937 13.8237C193.703 14.383 193.362 14.7336 192.93 15.1533L192.554 15.5213L192.265 15.7991C191.744 15.4946 191.253 15.1669 190.765 14.8114C189.76 14.1082 188.81 13.6341 187.555 13.6717C186.835 13.8197 186.206 13.998 185.731 14.5835C185.571 15.1883 185.541 15.5383 185.75 16.1315C186.221 16.8373 186.804 17.2089 187.583 17.5181L188.064 17.7116C188.471 17.8693 188.878 18.0251 189.287 18.1793C193.526 19.7848 193.526 19.7848 194.418 21.6369C194.762 22.7018 194.83 23.852 194.415 24.9015C193.554 26.4749 192.017 27.4643 190.336 27.9738C187.632 28.6057 184.901 27.9581 182.54 26.5879L182.084 26.2839C182.32 25.6938 182.693 25.3677 183.167 24.9543L183.586 24.5863L183.908 24.3085C184.359 24.5211 184.754 24.771 185.161 25.0588C186.448 25.9149 187.881 26.3461 189.445 26.0655C190.132 25.8363 190.612 25.4872 191.05 24.9164C191.254 24.3277 191.216 24.0521 191.031 23.4538C190.278 22.0998 188.654 21.6886 187.266 21.2025C185.533 20.5916 183.541 19.8865 182.54 18.2304C182.061 17.201 181.924 15.998 182.265 14.9064C182.813 13.5581 183.705 12.7276 185.039 12.1409Z" fill="white"/>
<path d="M97.1247 6.39396C100.327 5.0312 104.548 5.84054 107.271 7.89866C107.552 8.14326 107.822 8.39097 108.083 8.65725L106.259 10.7846C105.803 10.6327 105.803 10.6326 105.499 10.2338C104.506 8.98785 102.881 8.26933 101.33 8.07792C99.9849 7.98663 98.9353 8.34008 97.8067 9.06563C97.0539 9.79859 96.7997 10.5157 96.762 11.5634C96.7921 12.3334 96.8914 12.7992 97.4458 13.3678C98.9016 14.3687 100.662 14.8522 102.346 15.3147C104.862 16.0342 107.322 16.8276 108.657 19.2293C109.334 20.5741 109.375 22.2036 108.947 23.6437C108.332 25.1205 106.926 26.4956 105.499 27.1957C102.538 28.3947 99.2113 28.5831 96.1984 27.3637C95.0598 26.8609 94.04 26.2629 93.0391 25.5242C93.5145 24.9561 93.9967 24.3947 94.5017 23.8527L94.7545 23.5773C95.0145 23.3968 95.0145 23.3968 95.3161 23.4134C95.6771 23.573 95.8913 23.7667 96.1732 24.0426C97.6899 25.4107 99.6108 25.9317 101.625 25.8809C102.81 25.7632 103.959 25.4207 104.83 24.5768C105.357 23.9139 105.617 23.2256 105.718 22.3901C105.609 21.5474 105.362 20.9226 104.74 20.3387C103.349 19.269 101.568 18.8257 99.918 18.3102C97.5663 17.5721 95.0616 16.6767 93.7876 14.409C93.084 13.0017 93.0338 11.3655 93.495 9.87288C93.9888 8.42669 95.1646 7.3532 96.5085 6.68006L96.838 6.52989L97.1247 6.39396Z" fill="white"/>
<path fill-rule="evenodd" clip-rule="evenodd" d="M166.281 13.2159C169.583 11.5717 173.832 10.7912 177.197 12.7007C178.228 13.4281 178.722 14.3536 178.99 15.5773C179.21 17.0568 179.207 18.5735 179.219 20.0663C179.222 20.361 179.225 20.6557 179.227 20.9504C179.232 21.4039 179.235 21.8573 179.235 22.3109C179.236 22.7562 179.241 23.2014 179.247 23.6467C179.246 23.783 179.245 23.9193 179.244 24.0597C179.251 24.4121 179.263 24.7264 179.349 25.0683C179.75 25.4122 180.067 25.5102 180.565 25.6761V27.8035C178.87 27.7377 177.682 27.6554 176.462 26.4359C175.958 26.4952 175.654 26.7136 175.256 27.0152C173.559 28.1566 171.614 28.323 169.624 28.1074C169.018 27.9763 168.502 27.7854 167.953 27.4996L167.614 27.3328C166.397 26.6606 165.749 25.5962 165.324 24.2973C165.024 23.0432 165.099 21.9764 165.743 20.851C167.514 18.2674 170.991 17.4723 173.879 16.8628C174.484 16.7642 175.088 16.7135 175.702 16.7108C175.554 15.8333 175.395 15.1176 174.791 14.4315C173.679 13.7649 172.547 13.876 171.315 14.1466C170.468 14.374 169.724 14.7293 168.955 15.145C168.61 15.3182 168.324 15.4105 167.953 15.4952C167.673 15.173 167.395 14.8501 167.117 14.5265L166.875 14.2487C166.281 13.5542 166.281 13.5542 166.281 13.2159ZM175.854 18.6862C173.714 18.6862 170.779 19.997 169.26 21.4374C168.681 22.1213 168.647 22.7004 168.664 23.5755C168.758 24.4148 169.09 24.9903 169.681 25.5812C170.543 26.1148 171.363 26.2553 172.359 26.132C173.72 25.8082 174.785 25.1902 175.541 23.9951C175.818 23.2291 175.873 22.4939 175.869 21.6838L175.868 21.1525L175.864 20.6047L175.862 20.0461C175.86 19.5928 175.857 19.1395 175.854 18.6862Z" fill="white"/>
<path fill-rule="evenodd" clip-rule="evenodd" d="M137.714 13.2159C141.049 11.4755 145.713 10.6433 148.996 12.9595C150.108 13.9419 150.415 15.2675 150.507 16.7076C150.52 17.2068 150.524 17.7054 150.525 18.2048C150.529 18.5773 150.532 18.9498 150.536 19.3222C150.541 19.9041 150.544 20.486 150.547 21.0679C150.55 21.6331 150.556 22.1983 150.563 22.7635C150.563 23.0246 150.563 23.0247 150.563 23.2912C150.566 23.5346 150.566 23.5347 150.569 23.7831C150.57 23.9253 150.571 24.0675 150.571 24.214C150.644 24.7112 150.769 24.9811 151.086 25.3722L151.997 25.6761V27.8035C150.167 27.7324 148.947 27.5358 147.591 26.2839L147.23 26.6163C145.443 28.1 143.287 28.3038 141.057 28.1074C140.445 27.9824 139.935 27.7918 139.385 27.4996L139.018 27.3096C137.919 26.6623 137.239 25.7256 136.735 24.565C136.525 23.1866 136.454 21.8567 137.258 20.6616C139.236 18.1906 142.885 17.1898 145.91 16.7821C146.319 16.7473 146.725 16.72 147.135 16.7108C146.987 15.8333 146.828 15.1176 146.223 14.4315C145.12 13.7697 143.991 13.8744 142.766 14.1371C141.814 14.3887 141.002 14.8272 140.15 15.3082C139.689 15.4952 139.689 15.4952 139.369 15.4257C138.977 15.1063 138.676 14.7489 138.359 14.3555L137.991 13.9044C137.714 13.5198 137.714 13.5198 137.714 13.2159ZM147.135 18.6862C145.068 18.6862 142.149 20.0569 140.692 21.4374C140.09 22.1499 140.071 22.7814 140.087 23.6936C140.204 24.628 140.65 25.1692 141.37 25.7426C142.357 26.2675 143.332 26.2402 144.4 25.961C145.509 25.5945 146.374 24.9651 146.982 23.9591C147.324 23.0413 147.21 22.0073 147.182 21.0415C147.179 20.8128 147.175 20.5841 147.172 20.3554C147.164 19.7989 147.151 19.2426 147.135 18.6862Z" fill="white"/>
<path d="M163.85 15.0393L162.653 15.1438C161.369 15.2817 160.214 15.5475 159.301 16.5304C158.486 17.7888 158.463 18.899 158.459 20.366C158.457 20.5714 158.454 20.7767 158.452 20.982C158.446 21.519 158.442 22.056 158.439 22.593C158.433 23.4555 158.424 24.318 158.414 25.1805C158.412 25.4813 158.41 25.7822 158.408 26.083C158.406 26.3554 158.406 26.3555 158.404 26.6334C158.403 26.7937 158.401 26.9541 158.4 27.1193C158.379 27.4995 158.379 27.4996 158.228 27.8035H154.885L154.88 26.6112C154.875 25.3126 154.867 24.0141 154.857 22.7155C154.851 21.9281 154.846 21.1406 154.843 20.3531C154.841 19.5935 154.836 18.8339 154.829 18.0743C154.826 17.7841 154.825 17.4939 154.825 17.2038C154.825 16.7981 154.821 16.3925 154.816 15.9868C154.816 15.8663 154.817 15.7457 154.818 15.6215C154.808 14.9688 154.808 14.9688 154.461 14.4388C154.091 14.25 154.091 14.25 153.517 14.1276V12.0002C155.06 12.0002 156.341 12.4378 157.468 13.5198C157.705 13.8154 157.887 14.1011 158.076 14.4315L158.522 14.0326C160.176 12.6324 161.644 12.0002 163.85 12.0002V15.0393Z" fill="white"/>
</svg>
